<svg width="116" height="23" viewBox="0 0 116 23" fill="none" xmlns="http://www.w3.org/2000/svg">
<path d="M14.08 16.746C13.86 16.9073 13.5153 17.1053 13.046 17.34C12.5767 17.5747 12.0193 17.78 11.374 17.956C10.7433 18.1173 10.0393 18.1907 9.262 18.176C8.01533 18.1613 6.89333 17.9413 5.896 17.516C4.89867 17.076 4.05533 16.4893 3.366 15.756C2.67667 15.008 2.14133 14.1573 1.76 13.204C1.39333 12.236 1.21 11.2093 1.21 10.124C1.21 8.90667 1.40067 7.792 1.782 6.78C2.16333 5.768 2.706 4.89533 3.41 4.162C4.114 3.414 4.95 2.83467 5.918 2.424C6.886 2.01333 7.942 1.808 9.086 1.808C10.098 1.808 11 1.94733 11.792 2.226C12.5987 2.49 13.2733 2.79067 13.816 3.128L12.804 5.548C12.3933 5.25467 11.88 4.96867 11.264 4.69C10.648 4.41133 9.95133 4.272 9.174 4.272C8.47 4.272 7.79533 4.41867 7.15 4.712C6.50467 4.99067 5.94 5.394 5.456 5.922C4.972 6.43533 4.58333 7.03667 4.29 7.726C4.01133 8.41533 3.872 9.16333 3.872 9.97C3.872 10.806 3.99667 11.576 4.246 12.28C4.51 12.9693 4.87667 13.5707 5.346 14.084C5.83 14.5973 6.402 15.0007 7.062 15.294C7.73667 15.5727 8.48467 15.712 9.306 15.712C10.142 15.712 10.868 15.5873 11.484 15.338C12.1147 15.074 12.6207 14.7807 13.002 14.458L14.08 16.746ZM18.1129 10.696C17.6289 10.696 17.2109 10.5347 16.8589 10.212C16.5069 9.88933 16.3309 9.43467 16.3309 8.848V7.792H18.1789V8.1C18.1789 8.364 18.2375 8.53267 18.3549 8.606C18.4722 8.66467 18.6629 8.694 18.9269 8.694H24.8669L19.4769 16.482L18.9929 15.976H24.8009V18H15.8469L21.3689 9.992L21.7649 10.696H18.1129ZM31.6276 18.242C30.7476 18.242 29.9482 18.0587 29.2296 17.692C28.5256 17.3253 27.9682 16.7827 27.5576 16.064C27.1469 15.3307 26.9416 14.4287 26.9416 13.358C26.9416 12.302 27.1542 11.4 27.5796 10.652C28.0196 9.88933 28.5916 9.30267 29.2956 8.892C30.0142 8.48133 30.7916 8.276 31.6276 8.276C32.5222 8.276 33.2409 8.452 33.7836 8.804C34.3409 9.156 34.7736 9.574 35.0816 10.058L34.9496 10.41L35.1916 8.694H37.4576V18H34.9936V15.734L35.2356 16.328C35.1769 16.416 35.0596 16.5627 34.8836 16.768C34.7076 16.9587 34.4656 17.1713 34.1576 17.406C33.8496 17.6407 33.4829 17.8387 33.0576 18C32.6469 18.1613 32.1702 18.242 31.6276 18.242ZM32.3096 16.218C32.7496 16.218 33.1456 16.1373 33.4976 15.976C33.8642 15.8147 34.1722 15.5873 34.4216 15.294C34.6856 15.0007 34.8762 14.6487 34.9936 14.238V12.214C34.8762 11.8327 34.6856 11.5027 34.4216 11.224C34.1576 10.9307 33.8349 10.7033 33.4536 10.542C33.0869 10.3807 32.6762 10.3 32.2216 10.3C31.7229 10.3 31.2609 10.4247 30.8356 10.674C30.4102 10.9233 30.0656 11.268 29.8016 11.708C29.5522 12.148 29.4276 12.654 29.4276 13.226C29.4276 13.7833 29.5596 14.2893 29.8236 14.744C30.0876 15.1987 30.4396 15.558 30.8796 15.822C31.3196 16.086 31.7962 16.218 32.3096 16.218ZM43.082 8.694L43.302 11.334L43.214 10.96C43.478 10.4027 43.8373 9.926 44.292 9.53C44.7613 9.11933 45.238 8.81133 45.722 8.606C46.206 8.386 46.602 8.276 46.91 8.276L46.8 10.74C46.096 10.6813 45.48 10.8133 44.952 11.136C44.4387 11.444 44.0353 11.8547 43.742 12.368C43.4633 12.8813 43.324 13.424 43.324 13.996V18H40.86V8.694H43.082ZM65.3892 5.24C64.8172 4.94667 64.2085 4.69733 63.5632 4.492C62.9178 4.272 62.3018 4.162 61.7152 4.162C60.9232 4.162 60.2925 4.338 59.8232 4.69C59.3685 5.042 59.1412 5.526 59.1412 6.142C59.1412 6.582 59.3025 6.97067 59.6252 7.308C59.9478 7.63067 60.3585 7.91667 60.8572 8.166C61.3558 8.40067 61.8838 8.628 62.4412 8.848C62.9252 9.024 63.4018 9.23667 63.8712 9.486C64.3552 9.72067 64.7878 10.014 65.1692 10.366C65.5505 10.718 65.8512 11.158 66.0712 11.686C66.3058 12.1993 66.4232 12.8373 66.4232 13.6C66.4232 14.436 66.2105 15.206 65.7852 15.91C65.3598 16.5993 64.7512 17.1493 63.9592 17.56C63.1672 17.9707 62.1992 18.176 61.0552 18.176C60.3952 18.176 59.7425 18.1027 59.0972 17.956C58.4665 17.8093 57.8652 17.6113 57.2932 17.362C56.7212 17.098 56.1932 16.8047 55.7092 16.482L56.8532 14.48C57.2052 14.744 57.6085 14.986 58.0632 15.206C58.5178 15.426 58.9872 15.602 59.4712 15.734C59.9552 15.8513 60.4098 15.91 60.8352 15.91C61.2898 15.91 61.7372 15.8367 62.1772 15.69C62.6318 15.5433 63.0058 15.3013 63.2992 14.964C63.6072 14.6267 63.7612 14.1793 63.7612 13.622C63.7612 13.1673 63.6292 12.7787 63.3652 12.456C63.1012 12.1333 62.7565 11.8547 62.3312 11.62C61.9205 11.3707 61.4658 11.1507 60.9672 10.96C60.4685 10.7693 59.9552 10.5567 59.4272 10.322C58.9138 10.0873 58.4372 9.80133 57.9972 9.464C57.5572 9.112 57.1978 8.68667 56.9192 8.188C56.6405 7.68933 56.5012 7.07333 56.5012 6.34C56.5012 5.46 56.7065 4.69733 57.1172 4.052C57.5278 3.40667 58.0925 2.89333 58.8112 2.512C59.5445 2.13067 60.3878 1.92533 61.3412 1.896C62.4705 1.896 63.4312 2.03533 64.2232 2.314C65.0298 2.578 65.7412 2.90067 66.3572 3.282L65.3892 5.24ZM69.2838 18V0.839999H71.7038V10.74L71.6598 10.366C71.9825 9.76467 72.4592 9.27333 73.0898 8.892C73.7205 8.496 74.4758 8.298 75.3558 8.298C76.2358 8.298 76.9618 8.55467 77.5338 9.068C78.1058 9.58133 78.3992 10.256 78.4138 11.092V18H75.9498V11.972C75.9352 11.5027 75.8032 11.1287 75.5538 10.85C75.3045 10.5567 74.9085 10.4027 74.3658 10.388C73.8672 10.388 73.4198 10.542 73.0238 10.85C72.6278 11.158 72.3125 11.576 72.0778 12.104C71.8578 12.6173 71.7478 13.204 71.7478 13.864V18H69.2838ZM81.0392 13.248C81.0392 12.3093 81.2592 11.466 81.6992 10.718C82.1392 9.95533 82.7552 9.36133 83.5472 8.936C84.3539 8.496 85.2632 8.276 86.2752 8.276C87.3166 8.276 88.2186 8.496 88.9812 8.936C89.7586 9.36133 90.3599 9.95533 90.7852 10.718C91.2106 11.466 91.4232 12.3093 91.4232 13.248C91.4232 14.1867 91.2106 15.0373 90.7852 15.8C90.3599 16.548 89.7586 17.142 88.9812 17.582C88.2186 18.022 87.3092 18.242 86.2532 18.242C85.2559 18.242 84.3612 18.044 83.5692 17.648C82.7772 17.2373 82.1539 16.658 81.6992 15.91C81.2592 15.162 81.0392 14.2747 81.0392 13.248ZM83.5252 13.27C83.5252 13.8127 83.6426 14.3113 83.8772 14.766C84.1119 15.206 84.4346 15.558 84.8452 15.822C85.2559 16.086 85.7106 16.218 86.2092 16.218C86.7519 16.218 87.2212 16.086 87.6172 15.822C88.0279 15.558 88.3432 15.206 88.5632 14.766C88.7979 14.3113 88.9152 13.8127 88.9152 13.27C88.9152 12.7127 88.7979 12.214 88.5632 11.774C88.3432 11.3193 88.0279 10.96 87.6172 10.696C87.2212 10.432 86.7519 10.3 86.2092 10.3C85.6959 10.3 85.2339 10.4393 84.8232 10.718C84.4272 10.982 84.1119 11.334 83.8772 11.774C83.6426 12.214 83.5252 12.7127 83.5252 13.27ZM99.6664 18.242C99.021 18.242 98.3977 18.1027 97.7964 17.824C97.195 17.5453 96.711 17.164 96.3444 16.68L96.4764 15.932V22.466H94.0124V8.518H96.1464L96.4764 10.674L96.2564 10.014C96.711 9.51533 97.261 9.10467 97.9064 8.782C98.5664 8.44467 99.307 8.276 100.128 8.276C101.008 8.276 101.793 8.48133 102.482 8.892C103.172 9.30267 103.714 9.88933 104.11 10.652C104.521 11.4 104.726 12.2873 104.726 13.314C104.726 14.3407 104.506 15.2207 104.066 15.954C103.626 16.6873 103.025 17.252 102.262 17.648C101.5 18.044 100.634 18.242 99.6664 18.242ZM99.1824 16.284C99.725 16.284 100.224 16.1593 100.678 15.91C101.148 15.6607 101.522 15.316 101.8 14.876C102.079 14.4213 102.218 13.9153 102.218 13.358C102.218 12.7713 102.086 12.258 101.822 11.818C101.573 11.3633 101.228 11.0113 100.788 10.762C100.363 10.498 99.8864 10.366 99.3584 10.366C98.8744 10.366 98.4417 10.4467 98.0604 10.608C97.679 10.7693 97.3564 11.004 97.0924 11.312C96.8284 11.6053 96.623 11.9573 96.4764 12.368V14.238C96.579 14.634 96.755 14.986 97.0044 15.294C97.2537 15.602 97.569 15.844 97.9504 16.02C98.3317 16.196 98.7424 16.284 99.1824 16.284Z" fill="#484ACF"/>
<circle cx="112" cy="12" r="4" fill="#484ACF"/>
</svg>
