<svg width="32" height="32" viewBox="0 0 32 32" fill="none" xmlns="http://www.w3.org/2000/svg">
<path d="M31 23.38V27.88C31.0017 28.2978 30.9161 28.7113 30.7488 29.094C30.5814 29.4768 30.336 29.8204 30.0281 30.1028C29.7203 30.3852 29.3569 30.6002 28.9611 30.7341C28.5654 30.8679 28.1461 30.9176 27.73 30.88C23.1143 30.3785 18.6805 28.8012 14.785 26.275C11.1608 23.972 8.08803 20.8993 5.78502 17.275C3.24999 13.3618 1.67239 8.90652 1.18002 4.27002C1.14254 3.85522 1.19183 3.43716 1.32477 3.04246C1.45771 2.64776 1.67138 2.28506 1.95217 1.97746C2.23296 1.66985 2.57473 1.42409 2.95571 1.25581C3.33669 1.08753 3.74853 1.00042 4.16502 1.00002H8.66502C9.39298 0.992859 10.0987 1.25064 10.6507 1.72532C11.2026 2.2 11.5631 2.85919 11.665 3.58002C11.855 5.02012 12.2072 6.43411 12.715 7.79502C12.9168 8.33191 12.9605 8.9154 12.8409 9.47634C12.7212 10.0373 12.4433 10.5522 12.04 10.96L10.135 12.865C12.2704 16.6203 15.3797 19.7297 19.135 21.865L21.04 19.96C21.4479 19.5567 21.9628 19.2788 22.5237 19.1592C23.0846 19.0395 23.6681 19.0832 24.205 19.285C25.5659 19.7928 26.9799 20.1451 28.42 20.335C29.1487 20.4378 29.8141 20.8048 30.2898 21.3663C30.7655 21.9277 31.0183 22.6444 31 23.38Z" stroke="#9397AD" stroke-width="2" stroke-linecap="round" stroke-linejoin="round"/>
</svg>
